<svg width="169" height="154" viewBox="0 0 169 154" fill="none" xmlns="http://www.w3.org/2000/svg">
<path d="M30.0458 5.98321C26.7414 2.67877 21.3838 2.67878 18.0794 5.98321L5.98333 18.0793C2.67889 21.3837 2.6789 26.7413 5.98333 30.0457L46.9544 71.0168C50.2589 74.3212 50.2588 79.6788 46.9544 82.9832L5.98333 123.954C2.67889 127.259 2.6789 132.616 5.98333 135.921L18.0794 148.017C21.3838 151.321 26.7414 151.321 30.0458 148.017L95.0794 82.9832C98.3838 79.6788 98.3838 74.3212 95.0794 71.0168L30.0458 5.98321Z" fill="#1E2D4E"/>
<path d="M97.7383 5.98321C94.4339 2.67877 89.0764 2.67878 85.7719 5.98321L73.6758 18.0793C70.3714 21.3837 70.3714 26.7413 73.6758 30.0457L114.647 71.0168C117.951 74.3212 117.951 79.6788 114.647 82.9832L73.6758 123.954C70.3714 127.259 70.3714 132.616 73.6758 135.921L85.7719 148.017C89.0764 151.321 94.4339 151.321 97.7383 148.017L162.772 82.9832C166.076 79.6788 166.076 74.3212 162.772 71.0168L97.7383 5.98321Z" fill="#FF8808"/>
</svg>
